<svg xmlns="http://www.w3.org/2000/svg" xmlns:xlink="http://www.w3.org/1999/xlink" contentStyleType="text/css" data-diagram-type="SEQUENCE" height="531px" preserveAspectRatio="none" style="width:1071px;height:531px;background:#FFFFFF;" version="1.1" viewBox="0 0 1071 531" width="1071px" zoomAndPan="magnify"><defs/><g><g><title>Hospital Clinician</title><rect fill="#FFFFFF" fill-opacity="0.00000" height="369.5938" width="8" x="64.4639" y="81.2969"/><line style="stroke:#181818;stroke-width:0.5;stroke-dasharray:5.0,5.0;" x1="68" x2="68" y1="81.2969" y2="450.8906"/></g><g><title>Hospital DCache on AWS</title><rect fill="#FFFFFF" fill-opacity="0.00000" height="369.5938" width="8" x="232.1953" y="81.2969"/><line style="stroke:#181818;stroke-width:0.5;stroke-dasharray:5.0,5.0;" x1="235.9277" x2="235.9277" y1="81.2969" y2="450.8906"/></g><g><title>Desilo Authentication Service</title><rect fill="#FFFFFF" fill-opacity="0.00000" height="369.5938" width="8" x="446.6855" y="81.2969"/><line style="stroke:#181818;stroke-width:0.5;stroke-dasharray:5.0,5.0;" x1="450.4629" x2="450.4629" y1="81.2969" y2="450.8906"/></g><g><title>Desilo Central Registry</title><rect fill="#FFFFFF" fill-opacity="0.00000" height="369.5938" width="8" x="654.333" y="81.2969"/><line style="stroke:#181818;stroke-width:0.5;stroke-dasharray:5.0,5.0;" x1="657.9082" x2="657.9082" y1="81.2969" y2="450.8906"/></g><g><title>GP DCache on Azure</title><rect fill="#FFFFFF" fill-opacity="0.00000" height="369.5938" width="8" x="831.041" y="81.2969"/><line style="stroke:#181818;stroke-width:0.5;stroke-dasharray:5.0,5.0;" x1="834.7578" x2="834.7578" y1="81.2969" y2="450.8906"/></g><g><title>General Practitioner</title><rect fill="#FFFFFF" fill-opacity="0.00000" height="369.5938" width="8" x="993.6558" y="81.2969"/><line style="stroke:#181818;stroke-width:0.5;stroke-dasharray:5.0,5.0;" x1="997.3242" x2="997.3242" y1="81.2969" y2="450.8906"/></g><g><text fill="#000000" font-family="sans-serif" font-size="14" lengthAdjust="spacing" textLength="120.9277" x="5" y="77.9951">Hospital Clinician</text><ellipse cx="68.4639" cy="13.5" fill="#008000" rx="8" ry="8" style="stroke:#181818;stroke-width:0.5;"/><path d="M68.4639,21.5 L68.4639,48.5 M55.4639,29.5 L81.4639,29.5 M68.4639,48.5 L55.4639,63.5 M68.4639,48.5 L81.4639,63.5 " fill="#FFFFFF" fill-opacity="0.00000" style="stroke:#181818;stroke-width:0.5;"/></g><g><text fill="#000000" font-family="sans-serif" font-size="14" lengthAdjust="spacing" textLength="120.9277" x="5" y="462.8857">Hospital Clinician</text><ellipse cx="68.4639" cy="474.6875" fill="#008000" rx="8" ry="8" style="stroke:#181818;stroke-width:0.5;"/><path d="M68.4639,482.6875 L68.4639,509.6875 M55.4639,490.6875 L81.4639,490.6875 M68.4639,509.6875 L55.4639,524.6875 M68.4639,509.6875 L81.4639,524.6875 " fill="#FFFFFF" fill-opacity="0.00000" style="stroke:#181818;stroke-width:0.5;"/></g><g><rect fill="#E2E2F0" height="30.2969" rx="2.5" ry="2.5" style="stroke:#181818;stroke-width:0.5;" width="188.5352" x="141.9277" y="50"/><text fill="#000000" font-family="sans-serif" font-size="14" lengthAdjust="spacing" textLength="174.5352" x="148.9277" y="69.9951">Hospital DCache on AWS</text></g><g><rect fill="#E2E2F0" height="30.2969" rx="2.5" ry="2.5" style="stroke:#181818;stroke-width:0.5;" width="188.5352" x="141.9277" y="449.8906"/><text fill="#000000" font-family="sans-serif" font-size="14" lengthAdjust="spacing" textLength="174.5352" x="148.9277" y="469.8857">Hospital DCache on AWS</text></g><g><rect fill="#ADD8E6" height="30.2969" rx="2.5" ry="2.5" style="stroke:#181818;stroke-width:0.5;" width="220.4453" x="340.4629" y="50"/><text fill="#000000" font-family="sans-serif" font-size="14" lengthAdjust="spacing" textLength="206.4453" x="347.4629" y="69.9951">Desilo Authentication Service</text></g><g><rect fill="#ADD8E6" height="30.2969" rx="2.5" ry="2.5" style="stroke:#181818;stroke-width:0.5;" width="220.4453" x="340.4629" y="449.8906"/><text fill="#000000" font-family="sans-serif" font-size="14" lengthAdjust="spacing" textLength="206.4453" x="347.4629" y="469.8857">Desilo Authentication Service</text></g><g><rect fill="#FFC0CB" height="30.2969" rx="2.5" ry="2.5" style="stroke:#181818;stroke-width:0.5;" width="174.8496" x="570.9082" y="50"/><text fill="#000000" font-family="sans-serif" font-size="14" lengthAdjust="spacing" textLength="160.8496" x="577.9082" y="69.9951">Desilo Central Registry</text></g><g><rect fill="#FFC0CB" height="30.2969" rx="2.5" ry="2.5" style="stroke:#181818;stroke-width:0.5;" width="174.8496" x="570.9082" y="449.8906"/><text fill="#000000" font-family="sans-serif" font-size="14" lengthAdjust="spacing" textLength="160.8496" x="577.9082" y="469.8857">Desilo Central Registry</text></g><g><rect fill="#E2E2F0" height="30.2969" rx="2.5" ry="2.5" style="stroke:#181818;stroke-width:0.5;" width="158.5664" x="755.7578" y="50"/><text fill="#000000" font-family="sans-serif" font-size="14" lengthAdjust="spacing" textLength="144.5664" x="762.7578" y="69.9951">GP DCache on Azure</text></g><g><rect fill="#E2E2F0" height="30.2969" rx="2.5" ry="2.5" style="stroke:#181818;stroke-width:0.5;" width="158.5664" x="755.7578" y="449.8906"/><text fill="#000000" font-family="sans-serif" font-size="14" lengthAdjust="spacing" textLength="144.5664" x="762.7578" y="469.8857">GP DCache on Azure</text></g><g><text fill="#000000" font-family="sans-serif" font-size="14" lengthAdjust="spacing" textLength="140.6631" x="924.3242" y="77.9951">General Practitioner</text><ellipse cx="997.6558" cy="13.5" fill="#800080" rx="8" ry="8" style="stroke:#181818;stroke-width:0.5;"/><path d="M997.6558,21.5 L997.6558,48.5 M984.6558,29.5 L1010.6558,29.5 M997.6558,48.5 L984.6558,63.5 M997.6558,48.5 L1010.6558,63.5 " fill="#FFFFFF" fill-opacity="0.00000" style="stroke:#181818;stroke-width:0.5;"/></g><g><text fill="#000000" font-family="sans-serif" font-size="14" lengthAdjust="spacing" textLength="140.6631" x="924.3242" y="462.8857">General Practitioner</text><ellipse cx="997.6558" cy="474.6875" fill="#800080" rx="8" ry="8" style="stroke:#181818;stroke-width:0.5;"/><path d="M997.6558,482.6875 L997.6558,509.6875 M984.6558,490.6875 L1010.6558,490.6875 M997.6558,509.6875 L984.6558,524.6875 M997.6558,509.6875 L1010.6558,524.6875 " fill="#FFFFFF" fill-opacity="0.00000" style="stroke:#181818;stroke-width:0.5;"/></g><g><polygon fill="#181818" points="438.6855,108.4297,448.6855,112.4297,438.6855,116.4297,442.6855,112.4297" style="stroke:#181818;stroke-width:1;"/><line style="stroke:#181818;stroke-width:1;" x1="68.4639" x2="444.6855" y1="112.4297" y2="112.4297"/><text fill="#000000" font-family="sans-serif" font-size="13" lengthAdjust="spacing" textLength="46.2046" x="75.4639" y="107.3638">Logs in</text></g><g><polygon fill="#181818" points="79.4639,137.5625,69.4639,141.5625,79.4639,145.5625,75.4639,141.5625" style="stroke:#181818;stroke-width:1;"/><line style="stroke:#181818;stroke-width:1;" x1="73.4639" x2="449.6855" y1="141.5625" y2="141.5625"/><text fill="#000000" font-family="sans-serif" font-size="13" lengthAdjust="spacing" textLength="197.082" x="85.4639" y="136.4966">Returns authentication tokens</text></g><g><polygon fill="#181818" points="646.333,166.6953,656.333,170.6953,646.333,174.6953,650.333,170.6953" style="stroke:#181818;stroke-width:1;"/><line style="stroke:#181818;stroke-width:1;" x1="68.4639" x2="652.333" y1="170.6953" y2="170.6953"/><text fill="#000000" font-family="sans-serif" font-size="13" lengthAdjust="spacing" textLength="240.2651" x="75.4639" y="165.6294">Requests DCache URLs by patient_id</text></g><g><polygon fill="#181818" points="79.4639,195.8281,69.4639,199.8281,79.4639,203.8281,75.4639,199.8281" style="stroke:#181818;stroke-width:1;"/><line style="stroke:#181818;stroke-width:1;" x1="73.4639" x2="657.333" y1="199.8281" y2="199.8281"/><text fill="#000000" font-family="sans-serif" font-size="13" lengthAdjust="spacing" textLength="259.7651" x="85.4639" y="194.7622">Responds with DCache websocket URLs</text></g><g><polygon fill="#181818" points="823.041,224.9609,833.041,228.9609,823.041,232.9609,827.041,228.9609" style="stroke:#181818;stroke-width:1;"/><line style="stroke:#181818;stroke-width:1;" x1="68.4639" x2="829.041" y1="228.9609" y2="228.9609"/><text fill="#000000" font-family="sans-serif" font-size="13" lengthAdjust="spacing" textLength="373.7881" x="75.4639" y="223.895">Requests regular meds and recent 10 appointment notes</text></g><g><polygon fill="#181818" points="79.4639,254.0938,69.4639,258.0938,79.4639,262.0938,75.4639,258.0938" style="stroke:#181818;stroke-width:1;"/><line style="stroke:#181818;stroke-width:1;" x1="73.4639" x2="834.041" y1="258.0938" y2="258.0938"/><text fill="#000000" font-family="sans-serif" font-size="13" lengthAdjust="spacing" textLength="233.9175" x="85.4639" y="253.0278">Returns Note-Summaries requested</text></g><g><polygon fill="#181818" points="461.6855,283.2266,451.6855,287.2266,461.6855,291.2266,457.6855,287.2266" style="stroke:#181818;stroke-width:1;"/><line style="stroke:#181818;stroke-width:1;" x1="455.6855" x2="996.6558" y1="287.2266" y2="287.2266"/><text fill="#000000" font-family="sans-serif" font-size="13" lengthAdjust="spacing" textLength="46.2046" x="467.6855" y="282.1606">Logs in</text></g><g><polygon fill="#181818" points="985.6558,312.3594,995.6558,316.3594,985.6558,320.3594,989.6558,316.3594" style="stroke:#181818;stroke-width:1;"/><line style="stroke:#181818;stroke-width:1;" x1="450.6855" x2="991.6558" y1="316.3594" y2="316.3594"/><text fill="#000000" font-family="sans-serif" font-size="13" lengthAdjust="spacing" textLength="197.082" x="457.6855" y="311.2935">Returns authentication tokens</text></g><g><polygon fill="#181818" points="669.333,341.4922,659.333,345.4922,669.333,349.4922,665.333,345.4922" style="stroke:#181818;stroke-width:1;"/><line style="stroke:#181818;stroke-width:1;" x1="663.333" x2="996.6558" y1="345.4922" y2="345.4922"/><text fill="#000000" font-family="sans-serif" font-size="13" lengthAdjust="spacing" textLength="240.2651" x="675.333" y="340.4263">Requests DCache URLs by patient_id</text></g><g><polygon fill="#181818" points="985.6558,370.625,995.6558,374.625,985.6558,378.625,989.6558,374.625" style="stroke:#181818;stroke-width:1;"/><line style="stroke:#181818;stroke-width:1;" x1="658.333" x2="991.6558" y1="374.625" y2="374.625"/><text fill="#000000" font-family="sans-serif" font-size="13" lengthAdjust="spacing" textLength="259.7651" x="665.333" y="369.5591">Responds with DCache websocket URLs</text></g><g><polygon fill="#181818" points="247.1953,399.7578,237.1953,403.7578,247.1953,407.7578,243.1953,403.7578" style="stroke:#181818;stroke-width:1;"/><line style="stroke:#181818;stroke-width:1;" x1="241.1953" x2="996.6558" y1="403.7578" y2="403.7578"/><text fill="#000000" font-family="sans-serif" font-size="13" lengthAdjust="spacing" textLength="295.2485" x="253.1953" y="398.6919">Requests Discharge Summary and TTO meds</text></g><g><polygon fill="#181818" points="985.6558,428.8906,995.6558,432.8906,985.6558,436.8906,989.6558,432.8906" style="stroke:#181818;stroke-width:1;"/><line style="stroke:#181818;stroke-width:1;" x1="236.1953" x2="991.6558" y1="432.8906" y2="432.8906"/><text fill="#000000" font-family="sans-serif" font-size="13" lengthAdjust="spacing" textLength="233.9175" x="243.1953" y="427.8247">Returns Note-Summaries requested</text></g><!--SRC=[bP9FQy904CNl-oa6SnRQguU2HD13g99OUYnhCYI3oUvs_rJif-zajqAKsj9Z9k_tvhrXPUsrXTb6EqDUzf3tfAWcgMOW7UIGjHPH2IEjvx6Hoa_4grpM7O9Mi7oj8b1igclj2Xtr6fR1TwXuB3snl4BxGJL6P3l-WwodjlE7Fk2FVCwmvOqbjkIyFKUohF8ICaFgUCsiTzDady6cHSLw9sIgkqQ5eztEye36I6YZXj7C16jw53dCdrAu1HIwTK1AfAmypnSSnGUh7CZhQbuVKRb4Zm57uNj0vzqbr4jPE3YSmJ30u1ir8ZQvs3gZLUFWHBpg6pdXmUdwY3x2oPphJBmjjg6N5WPaLAg61pMRm-C3I6CqAJ-CdqfxT8BHcnBFF9zNOHYa9HpTeYqs8YdldI55-EqEYV_t8PBntvT8zlpgfkxawaxQ5Y4LEiTxxFVRU1p1ujlezzf_0G00]--></g></svg>